<svg version="1.1" id="Layer_1" xmlns="http://www.w3.org/2000/svg" xmlns:xlink="http://www.w3.org/1999/xlink" x="0px" y="0px"
	 width="100%" viewBox="0 0 500 500" enable-background="new 0 0 500 500" xml:space="preserve">
<path fill="#FAFAFA" opacity="0.000000" stroke="none" 
	d="
M294.000000,501.000000 
	C196.000031,501.000000 98.500046,501.000000 1.000052,501.000000 
	C1.000035,334.333405 1.000035,167.666794 1.000017,1.000142 
	C167.666565,1.000095 334.333130,1.000095 500.999756,1.000047 
	C500.999847,167.666519 500.999847,334.333038 500.999939,500.999786 
	C432.166656,501.000000 363.333344,501.000000 294.000000,501.000000 
M115.001595,242.500153 
	C114.993187,236.668930 115.055855,230.836578 114.962151,225.006729 
	C114.740906,211.241974 102.589241,200.281616 90.280281,200.716461 
	C72.974312,201.327835 55.630211,200.775696 38.304539,200.941971 
	C25.661770,201.063293 15.120467,211.649719 15.030966,224.240402 
	C14.907802,241.566818 14.951734,258.895020 15.020712,276.222046 
	C15.077365,290.453064 28.202471,300.713989 39.328819,300.302002 
	C56.133274,299.679779 73.002945,299.574768 89.797173,300.322205 
	C102.758110,300.899048 115.446404,288.798889 115.058281,274.987488 
	C114.763542,264.499420 115.000961,253.996414 115.001595,242.500153 
M145.926056,215.524338 
	C145.337509,213.794235 144.456650,212.103973 144.214340,210.326660 
	C143.435745,204.615814 140.051315,203.918777 134.920166,205.482208 
	C138.623657,216.678314 142.322952,227.834396 145.999924,238.997849 
	C146.866669,241.629333 147.143494,244.195236 151.267151,244.193268 
	C155.200958,244.191406 156.276184,242.464828 157.276642,239.259567 
	C159.677902,231.566269 162.444778,223.987106 165.405319,215.368607 
	C168.521088,224.664566 171.437180,232.794235 173.917938,241.054657 
	C174.873871,244.237717 176.916275,243.926025 179.258484,244.052963 
	C181.714096,244.186035 183.179901,243.602570 184.005905,240.949356 
	C186.821106,231.906555 189.937057,222.957764 192.882507,213.954849 
	C193.791473,211.176575 194.522446,208.340057 195.365494,205.424484 
	C190.633362,203.991333 188.092377,204.987045 186.975174,209.760574 
	C185.844513,214.591629 183.921906,219.239319 182.311050,223.955322 
	C181.289108,226.947144 180.202942,229.917023 178.726913,234.076584 
	C175.528961,224.491837 172.684753,216.340134 170.132660,208.097977 
	C169.335098,205.522186 167.932953,204.196671 165.526779,204.974899 
	C163.836655,205.521530 162.016846,206.795090 161.082275,208.268723 
	C159.872543,210.176224 159.504929,212.612457 158.741867,214.809616 
	C156.718536,220.635513 154.677505,226.455276 152.643524,232.277496 
	C152.248108,232.238419 151.852692,232.199341 151.457275,232.160263 
	C149.676468,226.871506 147.895660,221.582733 145.926056,215.524338 
M215.292450,217.522247 
	C215.292450,226.258133 215.292450,234.994019 215.292450,243.729462 
	C218.204117,243.729462 220.296402,243.729462 222.996246,243.729462 
	C222.996246,235.461502 222.996246,227.463455 222.996246,217.974030 
	C229.715836,226.221634 235.565292,233.177322 241.139496,240.347000 
	C243.561172,243.461823 246.146957,245.037476 250.152069,243.527802 
	C250.152069,230.709595 250.152069,217.852646 250.152069,204.907181 
	C247.642746,204.907181 245.546158,204.907181 242.809265,204.907181 
	C242.809265,213.315765 242.809265,221.448700 242.809265,230.774475 
	C235.972610,222.392273 229.908508,215.123154 224.048752,207.692886 
	C221.631546,204.627853 219.010147,203.757050 215.292877,205.499603 
	C215.292877,209.231705 215.292877,212.883026 215.292450,217.522247 
M260.173279,204.682404 
	C259.484375,206.102081 258.250488,207.502914 258.200684,208.944656 
	C257.982239,215.267120 258.106415,221.601410 258.106354,227.931412 
	C258.106354,233.194870 258.106384,238.458344 258.106384,243.908173 
	C265.508392,243.908173 272.179840,244.284027 278.792908,243.822739 
	C289.513702,243.074890 296.930176,234.775482 296.899353,224.261536 
	C296.868408,213.703842 289.461823,205.790298 278.538208,205.031693 
	C272.732758,204.628525 266.890961,204.748001 260.173279,204.682404 
M332.670624,221.218613 
	C331.570648,230.483124 335.291168,238.033829 342.966370,242.113586 
	C350.741547,246.246475 360.867615,245.363907 367.402222,239.983765 
	C374.295959,234.307922 376.632141,225.321182 373.374969,217.007782 
	C370.049408,208.519836 361.601471,203.489258 351.797546,204.158890 
	C342.204620,204.814087 335.170868,210.850906 332.670624,221.218613 
M387.066742,234.737427 
	C387.508057,234.131500 387.841858,233.135941 388.407257,232.979950 
	C393.990417,231.439819 397.768707,232.783173 400.949738,237.800613 
	C403.658478,242.073013 406.334686,245.910751 412.799652,243.355392 
	C410.097412,239.419678 407.420776,235.521255 404.682434,231.532913 
	C405.518402,230.860825 405.996307,230.407440 406.538239,230.051651 
	C411.558167,226.756027 413.355377,222.074814 412.393188,216.269653 
	C411.402039,210.289673 407.559845,206.280609 401.922119,205.627258 
	C394.776855,204.799179 387.462891,205.427048 380.258118,205.427048 
	C380.258118,218.341019 380.258118,231.059570 380.258118,243.764404 
	C382.615173,243.764404 384.558533,243.764404 387.039642,243.764404 
	C387.039642,240.912643 387.039642,238.293762 387.066742,234.737427 
M467.714355,227.069733 
	C472.648193,227.069733 477.582031,227.069733 482.895721,227.069733 
	C482.766663,224.622269 482.676849,222.919434 482.563110,220.762115 
	C476.048981,220.762115 470.127197,220.762115 464.210266,220.762115 
	C464.210266,217.335510 464.210266,214.407440 464.210266,210.930511 
	C471.217682,210.930511 477.962830,210.930511 484.832458,210.930511 
	C484.832458,208.606384 484.832458,206.841293 484.832458,204.957886 
	C475.326874,204.957886 466.076477,204.957886 456.593414,204.957886 
	C456.593414,218.031113 456.593414,230.766968 456.593414,243.711517 
	C466.453156,243.711517 476.013641,243.711517 485.601074,243.711517 
	C485.601074,241.685226 485.601074,239.969864 485.601074,237.811890 
	C478.308441,237.811890 471.377075,237.811890 463.945892,237.811890 
	C463.945892,234.758942 463.701202,232.099884 464.075287,229.530914 
	C464.210724,228.600998 465.827301,227.886765 467.714355,227.069733 
M451.400665,211.237381 
	C447.651367,204.602097 441.199707,203.975662 434.714417,204.233459 
	C424.955566,204.621368 417.471527,211.482758 415.717834,220.994370 
	C414.053009,230.024246 418.702576,238.957809 427.040924,242.750137 
	C435.723724,246.699127 446.162476,244.662247 451.723633,237.660995 
	C450.340515,236.376862 448.933807,235.070847 447.605255,233.837372 
	C438.813812,239.396454 431.486542,239.315277 426.427948,233.829803 
	C422.057556,229.090561 421.727173,220.983704 425.694702,215.837494 
	C430.345367,209.805206 437.288635,209.434311 447.750153,214.735443 
	C448.821228,213.781326 449.934479,212.789627 451.400665,211.237381 
M301.998627,214.536209 
	C301.998627,224.283356 301.998627,234.030518 301.998627,243.596924 
	C304.808075,243.596924 306.873474,243.596924 309.388885,243.596924 
	C309.388885,238.604385 309.388885,234.011398 309.388885,228.967346 
	C315.760345,228.967346 321.683044,228.967346 327.812805,228.967346 
	C327.812805,226.783279 327.812805,225.072372 327.812805,222.806091 
	C321.613586,222.806091 315.708954,222.806091 309.510406,222.806091 
	C309.510406,218.688156 309.510406,215.126205 309.510406,210.944061 
	C316.585144,210.944061 323.466614,210.944061 330.385681,210.944061 
	C330.385681,208.605728 330.385681,206.901840 330.385681,205.253784 
	C320.761932,205.253784 311.543243,205.253784 301.998627,205.253784 
	C301.998627,208.269775 301.998627,210.908997 301.998627,214.536209 
M306.933167,287.399933 
	C306.932648,284.572113 306.866577,281.742432 306.946014,278.916840 
	C307.088196,273.858368 306.457855,269.040070 301.304901,266.596680 
	C295.780457,263.977112 290.238007,264.829193 285.100372,267.844574 
	C284.221466,268.360382 284.053833,270.088104 283.557648,271.255981 
	C296.423218,266.525024 302.783417,268.660492 302.031616,277.750305 
	C297.632721,278.105652 293.153442,278.186798 288.777496,278.901184 
	C284.532501,279.594116 281.987701,282.347290 282.060394,286.867889 
	C282.132660,291.362152 284.832825,294.432068 288.947052,294.729675 
	C293.489227,295.058258 298.136353,293.936005 302.964447,293.421509 
	C303.308441,293.640167 304.341309,294.296783 305.374207,294.953369 
	C305.893036,293.920349 306.615631,292.935394 306.873566,291.840881 
	C307.133636,290.737579 306.932281,289.525543 306.933167,287.399933 
M157.500351,282.599976 
	C157.563965,280.940247 157.508560,279.265686 157.712875,277.623444 
	C158.405624,272.055420 162.380875,268.782104 168.010696,269.036194 
	C173.370865,269.278137 176.008850,272.190247 176.148697,278.246429 
	C176.252289,282.732452 176.243439,287.223572 176.167999,291.710449 
	C176.110931,295.103699 177.467560,295.819489 180.643860,294.136322 
	C180.643860,289.210388 180.660980,284.240356 180.631134,279.270569 
	C180.624191,278.112488 180.531479,276.943848 180.352554,275.799713 
	C179.252853,268.768097 174.588120,264.547577 167.666855,265.293243 
	C164.087723,265.678833 160.672974,267.590210 157.875458,268.570038 
	C156.886566,267.550354 155.838959,266.470154 154.791351,265.389954 
	C154.229736,266.742737 153.212494,268.085510 153.182510,269.449982 
	C153.021774,276.760712 153.177765,284.077881 153.073715,291.390656 
	C153.030396,294.435699 153.864883,295.862610 157.498886,294.374359 
	C157.498886,290.829651 157.498886,287.194885 157.500351,282.599976 
M380.279388,266.355499 
	C380.222595,274.838562 380.222290,283.322571 380.079498,291.804199 
	C380.026764,294.937256 381.330780,295.628998 384.500183,294.402008 
	C384.500183,291.734406 384.475708,288.927887 384.507050,286.122009 
	C384.538635,283.295013 384.427643,280.447266 384.730225,277.646545 
	C385.334137,272.056458 389.369598,268.784027 395.006073,269.036102 
	C400.372986,269.276154 403.009857,272.189178 403.149109,278.257538 
	C403.252167,282.748657 403.270905,287.245972 403.157440,291.736237 
	C403.079834,294.806244 404.332581,295.643677 407.422760,294.497803 
	C407.494446,293.138306 407.652374,291.669830 407.634430,290.203491 
	C407.575470,285.383209 407.846344,280.515747 407.266510,275.754608 
	C406.283691,267.684998 399.487823,263.390350 391.650391,265.684662 
	C389.176819,266.408783 386.941223,267.945831 385.647614,268.588623 
	C383.695526,267.441498 382.231873,266.581421 380.279388,266.355499 
M221.302780,283.794434 
	C221.555603,284.584625 221.748962,285.399933 222.070541,286.161072 
	C224.956635,292.992065 231.549484,296.420715 239.109680,295.047363 
	C246.274399,293.745850 250.923508,288.129700 251.023270,280.655762 
	C251.127670,272.835205 246.785004,267.235443 239.333328,265.534607 
	C229.967987,263.397034 219.338562,270.545013 221.302780,283.794434 
M353.583557,294.107727 
	C362.507568,296.878082 369.600677,294.433350 373.209961,287.343140 
	C376.620941,280.642487 374.788513,272.300964 368.986450,268.116730 
	C361.990662,263.071625 352.125885,264.634857 347.309906,271.551727 
	C342.256744,278.809296 344.724213,288.679504 353.583557,294.107727 
M418.319427,270.685913 
	C422.343811,267.894836 426.499817,268.801727 430.758270,270.068146 
	C431.698456,270.347778 432.905670,269.729462 433.989929,269.524658 
	C433.358398,268.574371 432.806244,266.873352 432.082306,266.796844 
	C427.711700,266.334625 423.226562,265.657501 418.927979,266.208679 
	C415.266144,266.678162 412.899109,269.636475 412.741577,273.662872 
	C412.575806,277.899323 415.203430,280.008514 418.861938,281.071411 
	C421.412781,281.812469 424.239044,281.877228 426.573669,283.006256 
	C428.502014,283.938751 429.890137,285.988312 431.517639,287.542908 
	C429.638672,288.848633 427.815308,291.132080 425.868408,291.242828 
	C422.513550,291.433594 419.094147,290.176971 415.674988,289.735687 
	C414.629150,289.600708 413.495422,290.146545 412.401947,290.380646 
	C412.992157,291.347717 413.353088,292.791504 414.210144,293.203644 
	C419.351807,295.675995 424.725830,296.211792 430.189209,294.261658 
	C433.620300,293.036987 435.854584,290.752441 435.906616,286.912750 
	C435.960571,282.930481 433.501862,280.853119 430.008850,279.864136 
	C427.133392,279.049988 424.124146,278.688873 421.278137,277.795715 
	C418.173004,276.821198 415.611786,275.239990 418.319427,270.685913 
M200.084656,208.811951 
	C200.084656,220.378326 200.084656,231.944702 200.084656,243.724289 
	C202.860336,243.724289 205.072556,243.724289 207.537750,243.724289 
	C207.537750,230.717285 207.537750,218.019608 207.537750,204.810593 
	C204.778030,205.826279 200.482788,201.416107 200.084656,208.811951 
M204.199783,269.034363 
	C209.701675,269.759857 211.735275,273.406250 211.893921,278.430725 
	C212.030426,282.754211 211.780075,287.093994 212.034332,291.406952 
	C212.106186,292.626099 213.349579,293.776215 214.055649,294.957977 
	C214.694794,293.870422 215.843872,292.801910 215.885406,291.692017 
	C216.071991,286.706299 216.125504,281.700195 215.887650,276.717621 
	C215.508209,268.769287 209.388275,263.875427 201.562912,265.404297 
	C198.718246,265.960083 196.068192,267.511810 193.950363,268.360321 
	C192.711197,267.289124 191.630600,266.355011 190.550018,265.420868 
	C189.985611,266.767792 188.964279,268.104279 188.933273,269.463379 
	C188.770050,276.616913 188.746048,283.779358 188.954590,290.930542 
	C188.994247,292.290344 190.297791,293.613342 191.018188,294.953308 
	C191.648743,293.680908 192.732803,292.439850 192.823196,291.130157 
	C193.074722,287.485565 192.864609,283.811646 192.925812,280.150818 
	C193.050003,272.723175 195.910751,269.708435 204.199783,269.034363 
M325.909973,291.490326 
	C322.680511,291.795532 320.088867,290.939545 319.982239,287.213837 
	C319.812805,281.292969 319.937012,275.363708 319.937012,268.965515 
	C322.627930,268.965515 324.766876,269.108398 326.866486,268.883759 
	C327.551086,268.810547 328.133148,267.778992 328.762085,267.185730 
	C328.138367,266.569397 327.561859,265.491028 326.882294,265.421631 
	C324.664795,265.195129 322.409698,265.336700 320.279114,265.336700 
	C319.602203,259.059937 319.602203,259.059937 315.735504,259.794098 
	C315.551971,261.372620 315.364044,262.988770 315.263733,263.851318 
	C313.249268,265.213562 311.781281,266.206268 310.313293,267.198944 
	C311.811096,268.137329 313.308868,269.075714 315.611481,270.518341 
	C315.611481,275.455963 315.323669,281.255035 315.687164,287.013000 
	C316.105133,293.634399 321.525085,297.033844 327.640564,294.796997 
	C328.651123,294.427338 329.344177,293.189636 330.183960,292.353119 
	C329.007751,292.005249 327.831512,291.657379 325.909973,291.490326 
M257.734283,280.860046 
	C259.486847,284.811127 261.131836,288.814728 263.026245,292.696564 
	C264.527771,295.773285 267.653778,296.142609 268.984100,293.298889 
	C273.186859,284.314789 277.096252,275.193512 281.540863,265.174652 
	C274.318573,266.246338 274.920166,272.189911 272.843964,275.813934 
	C270.434174,280.020264 268.703857,284.615814 266.186890,290.117096 
	C262.681885,282.193573 259.801147,275.336487 256.574921,268.645966 
	C255.828171,267.097351 253.901016,266.117950 252.517029,264.876617 
	C252.096863,265.284363 251.676712,265.692078 251.256561,266.099792 
	C253.297653,270.795990 255.338745,275.492157 257.734283,280.860046 
M140.732147,294.937622 
	C143.099014,295.347748 143.975800,294.401428 143.956253,291.967804 
	C143.868103,280.997437 143.869156,270.025665 143.948257,259.055145 
	C143.971237,255.867889 142.588638,255.313751 139.947983,256.325958 
	C139.947983,269.114471 139.947983,281.848083 140.732147,294.937622 
M335.106262,288.369904 
	C335.113739,294.869080 335.113739,294.869080 339.492737,294.429535 
	C339.492737,285.845001 339.569183,277.208649 339.396881,268.577271 
	C339.375122,267.488251 338.046326,266.425293 337.323120,265.350250 
	C336.584320,266.540741 335.250061,267.710144 335.207001,268.925262 
	C334.989014,275.077209 335.106537,281.241089 335.106262,288.369904 
M335.573883,254.070374 
	C335.487427,255.472977 335.076508,256.982544 335.485138,258.221924 
	C335.634308,258.674255 337.907959,258.880890 338.879913,258.449799 
	C339.545471,258.154602 340.201172,255.971146 339.877808,255.662598 
	C338.912262,254.741379 337.462219,254.328003 335.573883,254.070374 
z"/>
<path fill="#7FD958" opacity="1.000000" stroke="none" 
	d="
M115.001595,243.000107 
	C115.000961,253.996414 114.763542,264.499420 115.058281,274.987488 
	C115.446404,288.798889 102.758110,300.899048 89.797173,300.322205 
	C73.002945,299.574768 56.133274,299.679779 39.328819,300.302002 
	C28.202471,300.713989 15.077365,290.453064 15.020712,276.222046 
	C14.951734,258.895020 14.907802,241.566818 15.030966,224.240402 
	C15.120467,211.649719 25.661770,201.063293 38.304539,200.941971 
	C55.630211,200.775696 72.974312,201.327835 90.280281,200.716461 
	C102.589241,200.281616 114.740906,211.241974 114.962151,225.006729 
	C115.055855,230.836578 114.993187,236.668930 115.001595,243.000107 
M77.218643,209.313950 
	C76.000969,210.011719 74.522804,210.465347 73.605247,211.444382 
	C62.341164,223.463028 51.146595,235.546982 39.978817,247.655334 
	C39.047031,248.665588 38.439068,249.974518 37.082558,252.067505 
	C46.020916,252.476074 53.877563,252.835190 62.595417,253.233688 
	C56.712215,265.632477 51.087410,277.486725 45.462601,289.340973 
	C46.066166,289.734253 46.669735,290.127563 47.273300,290.520874 
	C63.281582,272.016815 79.403435,253.608551 94.717445,234.519043 
	C94.353378,234.126221 93.989304,233.733398 93.625237,233.340576 
	C85.805321,234.010269 77.985397,234.679962 69.312408,235.422714 
	C72.319702,226.202988 74.982796,218.038528 77.218643,209.313950 
z"/>
<path fill="#82DA5C" opacity="1.000000" stroke="none" 
	d="
M146.020462,215.909149 
	C147.895660,221.582733 149.676468,226.871506 151.457275,232.160263 
	C151.852692,232.199341 152.248108,232.238419 152.643524,232.277496 
	C154.677505,226.455276 156.718536,220.635513 158.741867,214.809616 
	C159.504929,212.612457 159.872543,210.176224 161.082275,208.268723 
	C162.016846,206.795090 163.836655,205.521530 165.526779,204.974899 
	C167.932953,204.196671 169.335098,205.522186 170.132660,208.097977 
	C172.684753,216.340134 175.528961,224.491837 178.726913,234.076584 
	C180.202942,229.917023 181.289108,226.947144 182.311050,223.955322 
	C183.921906,219.239319 185.844513,214.591629 186.975174,209.760574 
	C188.092377,204.987045 190.633362,203.991333 195.365494,205.424484 
	C194.522446,208.340057 193.791473,211.176575 192.882507,213.954849 
	C189.937057,222.957764 186.821106,231.906555 184.005905,240.949356 
	C183.179901,243.602570 181.714096,244.186035 179.258484,244.052963 
	C176.916275,243.926025 174.873871,244.237717 173.917938,241.054657 
	C171.437180,232.794235 168.521088,224.664566 165.405319,215.368607 
	C162.444778,223.987106 159.677902,231.566269 157.276642,239.259567 
	C156.276184,242.464828 155.200958,244.191406 151.267151,244.193268 
	C147.143494,244.195236 146.866669,241.629333 145.999924,238.997849 
	C142.322952,227.834396 138.623657,216.678314 134.920166,205.482208 
	C140.051315,203.918777 143.435745,204.615814 144.214340,210.326660 
	C144.456650,212.103973 145.337509,213.794235 146.020462,215.909149 
z"/>
<path fill="#84DA5E" opacity="1.000000" stroke="none" 
	d="
M215.292664,217.028305 
	C215.292877,212.883026 215.292877,209.231705 215.292877,205.499603 
	C219.010147,203.757050 221.631546,204.627853 224.048752,207.692886 
	C229.908508,215.123154 235.972610,222.392273 242.809265,230.774475 
	C242.809265,221.448700 242.809265,213.315765 242.809265,204.907181 
	C245.546158,204.907181 247.642746,204.907181 250.152069,204.907181 
	C250.152069,217.852646 250.152069,230.709595 250.152069,243.527802 
	C246.146957,245.037476 243.561172,243.461823 241.139496,240.347000 
	C235.565292,233.177322 229.715836,226.221634 222.996246,217.974030 
	C222.996246,227.463455 222.996246,235.461502 222.996246,243.729462 
	C220.296402,243.729462 218.204117,243.729462 215.292450,243.729462 
	C215.292450,234.994019 215.292450,226.258133 215.292664,217.028305 
z"/>
<path fill="#84DA5E" opacity="1.000000" stroke="none" 
	d="
M260.619446,204.656982 
	C266.890961,204.748001 272.732758,204.628525 278.538208,205.031693 
	C289.461823,205.790298 296.868408,213.703842 296.899353,224.261536 
	C296.930176,234.775482 289.513702,243.074890 278.792908,243.822739 
	C272.179840,244.284027 265.508392,243.908173 258.106384,243.908173 
	C258.106384,238.458344 258.106354,233.194870 258.106354,227.931412 
	C258.106415,221.601410 257.982239,215.267120 258.200684,208.944656 
	C258.250488,207.502914 259.484375,206.102081 260.619446,204.656982 
M265.760437,223.505859 
	C265.760437,228.115631 265.760437,232.725403 265.760437,237.732178 
	C273.915466,237.789032 281.974335,239.477661 287.171326,231.852829 
	C290.422363,227.083008 290.370941,221.500198 287.093323,216.778015 
	C281.813660,209.171402 273.750916,211.107208 265.760132,211.190125 
	C265.760132,215.260773 265.760132,218.886841 265.760437,223.505859 
z"/>
<path fill="#83DA5D" opacity="1.000000" stroke="none" 
	d="
M332.759888,220.820099 
	C335.170868,210.850906 342.204620,204.814087 351.797546,204.158890 
	C361.601471,203.489258 370.049408,208.519836 373.374969,217.007782 
	C376.632141,225.321182 374.295959,234.307922 367.402222,239.983765 
	C360.867615,245.363907 350.741547,246.246475 342.966370,242.113586 
	C335.291168,238.033829 331.570648,230.483124 332.759888,220.820099 
M341.664154,217.463837 
	C341.260040,218.373032 340.705536,219.246048 340.476562,220.197388 
	C339.138641,225.757172 339.950531,230.906677 344.425537,234.762833 
	C349.020691,238.722580 354.445953,239.171005 359.831726,236.642715 
	C365.215851,234.115204 367.391602,229.468491 367.143677,223.596100 
	C366.904236,217.925323 363.611511,213.369522 358.330627,211.511383 
	C352.236420,209.367050 346.696594,211.160919 341.664154,217.463837 
z"/>
<path fill="#81DA5B" opacity="1.000000" stroke="none" 
	d="
M387.053192,235.206161 
	C387.039642,238.293762 387.039642,240.912643 387.039642,243.764404 
	C384.558533,243.764404 382.615173,243.764404 380.258118,243.764404 
	C380.258118,231.059570 380.258118,218.341019 380.258118,205.427048 
	C387.462891,205.427048 394.776855,204.799179 401.922119,205.627258 
	C407.559845,206.280609 411.402039,210.289673 412.393188,216.269653 
	C413.355377,222.074814 411.558167,226.756027 406.538239,230.051651 
	C405.996307,230.407440 405.518402,230.860825 404.682434,231.532913 
	C407.420776,235.521255 410.097412,239.419678 412.799652,243.355392 
	C406.334686,245.910751 403.658478,242.073013 400.949738,237.800613 
	C397.768707,232.783173 393.990417,231.439819 388.407257,232.979950 
	C387.841858,233.135941 387.508057,234.131500 387.053192,235.206161 
M388.774994,211.026810 
	C388.218719,211.514038 387.193024,211.988510 387.179352,212.490463 
	C387.054749,217.077789 387.106140,221.669876 387.106140,226.879776 
	C391.307983,226.621323 394.925842,226.559265 398.501465,226.138412 
	C403.007843,225.608017 405.204407,222.902634 405.088440,218.323837 
	C404.973785,213.796707 402.112793,211.780426 398.168549,211.195526 
	C395.398285,210.784714 392.529694,211.036972 388.774994,211.026810 
z"/>
<path fill="#83DA5E" opacity="1.000000" stroke="none" 
	d="
M467.241211,227.071915 
	C465.827301,227.886765 464.210724,228.600998 464.075287,229.530914 
	C463.701202,232.099884 463.945892,234.758942 463.945892,237.811890 
	C471.377075,237.811890 478.308441,237.811890 485.601074,237.811890 
	C485.601074,239.969864 485.601074,241.685226 485.601074,243.711517 
	C476.013641,243.711517 466.453156,243.711517 456.593414,243.711517 
	C456.593414,230.766968 456.593414,218.031113 456.593414,204.957886 
	C466.076477,204.957886 475.326874,204.957886 484.832458,204.957886 
	C484.832458,206.841293 484.832458,208.606384 484.832458,210.930511 
	C477.962830,210.930511 471.217682,210.930511 464.210266,210.930511 
	C464.210266,214.407440 464.210266,217.335510 464.210266,220.762115 
	C470.127197,220.762115 476.048981,220.762115 482.563110,220.762115 
	C482.676849,222.919434 482.766663,224.622269 482.895721,227.069733 
	C477.582031,227.069733 472.648193,227.069733 467.241211,227.071915 
z"/>
<path fill="#83DA5E" opacity="1.000000" stroke="none" 
	d="
M451.224182,211.517654 
	C449.934479,212.789627 448.821228,213.781326 447.750153,214.735443 
	C437.288635,209.434311 430.345367,209.805206 425.694702,215.837494 
	C421.727173,220.983704 422.057556,229.090561 426.427948,233.829803 
	C431.486542,239.315277 438.813812,239.396454 447.605255,233.837372 
	C448.933807,235.070847 450.340515,236.376862 451.723633,237.660995 
	C446.162476,244.662247 435.723724,246.699127 427.040924,242.750137 
	C418.702576,238.957809 414.053009,230.024246 415.717834,220.994370 
	C417.471527,211.482758 424.955566,204.621368 434.714417,204.233459 
	C441.199707,203.975662 447.651367,204.602097 451.224182,211.517654 
z"/>
<path fill="#7FD958" opacity="1.000000" stroke="none" 
	d="
M301.998627,214.042206 
	C301.998627,210.908997 301.998627,208.269775 301.998627,205.253784 
	C311.543243,205.253784 320.761932,205.253784 330.385681,205.253784 
	C330.385681,206.901840 330.385681,208.605728 330.385681,210.944061 
	C323.466614,210.944061 316.585144,210.944061 309.510406,210.944061 
	C309.510406,215.126205 309.510406,218.688156 309.510406,222.806091 
	C315.708954,222.806091 321.613586,222.806091 327.812805,222.806091 
	C327.812805,225.072372 327.812805,226.783279 327.812805,228.967346 
	C321.683044,228.967346 315.760345,228.967346 309.388885,228.967346 
	C309.388885,234.011398 309.388885,238.604385 309.388885,243.596924 
	C306.873474,243.596924 304.808075,243.596924 301.998627,243.596924 
	C301.998627,234.030518 301.998627,224.283356 301.998627,214.042206 
z"/>
<path fill="#86DB62" opacity="1.000000" stroke="none" 
	d="
M306.933105,287.880554 
	C306.932281,289.525543 307.133636,290.737579 306.873566,291.840881 
	C306.615631,292.935394 305.893036,293.920349 305.374207,294.953369 
	C304.341309,294.296783 303.308441,293.640167 302.964447,293.421509 
	C298.136353,293.936005 293.489227,295.058258 288.947052,294.729675 
	C284.832825,294.432068 282.132660,291.362152 282.060394,286.867889 
	C281.987701,282.347290 284.532501,279.594116 288.777496,278.901184 
	C293.153442,278.186798 297.632721,278.105652 302.031616,277.750305 
	C302.783417,268.660492 296.423218,266.525024 283.557648,271.255981 
	C284.053833,270.088104 284.221466,268.360382 285.100372,267.844574 
	C290.238007,264.829193 295.780457,263.977112 301.304901,266.596680 
	C306.457855,269.040070 307.088196,273.858368 306.946014,278.916840 
	C306.866577,281.742432 306.932648,284.572113 306.933105,287.880554 
M301.710724,281.481384 
	C297.755463,281.633148 293.738892,281.436340 289.876526,282.116058 
	C288.424103,282.371674 286.481781,284.561340 286.307404,286.050201 
	C286.128754,287.575317 287.663116,290.582550 288.758545,290.737061 
	C292.153961,291.215942 295.975708,291.412781 299.106659,290.274353 
	C302.394562,289.078888 303.772278,285.723267 301.710724,281.481384 
z"/>
<path fill="#88DC64" opacity="1.000000" stroke="none" 
	d="
M157.499619,283.080017 
	C157.498886,287.194885 157.498886,290.829651 157.498886,294.374359 
	C153.864883,295.862610 153.030396,294.435699 153.073715,291.390656 
	C153.177765,284.077881 153.021774,276.760712 153.182510,269.449982 
	C153.212494,268.085510 154.229736,266.742737 154.791351,265.389954 
	C155.838959,266.470154 156.886566,267.550354 157.875458,268.570038 
	C160.672974,267.590210 164.087723,265.678833 167.666855,265.293243 
	C174.588120,264.547577 179.252853,268.768097 180.352554,275.799713 
	C180.531479,276.943848 180.624191,278.112488 180.631134,279.270569 
	C180.660980,284.240356 180.643860,289.210388 180.643860,294.136322 
	C177.467560,295.819489 176.110931,295.103699 176.167999,291.710449 
	C176.243439,287.223572 176.252289,282.732452 176.148697,278.246429 
	C176.008850,272.190247 173.370865,269.278137 168.010696,269.036194 
	C162.380875,268.782104 158.405624,272.055420 157.712875,277.623444 
	C157.508560,279.265686 157.563965,280.940247 157.499619,283.080017 
z"/>
<path fill="#88DC64" opacity="1.000000" stroke="none" 
	d="
M380.523804,266.038422 
	C382.231873,266.581421 383.695526,267.441498 385.647614,268.588623 
	C386.941223,267.945831 389.176819,266.408783 391.650391,265.684662 
	C399.487823,263.390350 406.283691,267.684998 407.266510,275.754608 
	C407.846344,280.515747 407.575470,285.383209 407.634430,290.203491 
	C407.652374,291.669830 407.494446,293.138306 407.422760,294.497803 
	C404.332581,295.643677 403.079834,294.806244 403.157440,291.736237 
	C403.270905,287.245972 403.252167,282.748657 403.149109,278.257538 
	C403.009857,272.189178 400.372986,269.276154 395.006073,269.036102 
	C389.369598,268.784027 385.334137,272.056458 384.730225,277.646545 
	C384.427643,280.447266 384.538635,283.295013 384.507050,286.122009 
	C384.475708,288.927887 384.500183,291.734406 384.500183,294.402008 
	C381.330780,295.628998 380.026764,294.937256 380.079498,291.804199 
	C380.222290,283.322571 380.222595,274.838562 380.523804,266.038422 
z"/>
<path fill="#86DB61" opacity="1.000000" stroke="none" 
	d="
M221.226288,283.384460 
	C219.338562,270.545013 229.967987,263.397034 239.333328,265.534607 
	C246.785004,267.235443 251.127670,272.835205 251.023270,280.655762 
	C250.923508,288.129700 246.274399,293.745850 239.109680,295.047363 
	C231.549484,296.420715 224.956635,292.992065 222.070541,286.161072 
	C221.748962,285.399933 221.555603,284.584625 221.226288,283.384460 
M226.790649,286.481232 
	C230.917755,291.780365 236.341187,293.155121 241.593491,290.233521 
	C246.081680,287.736969 248.094406,281.720123 246.264191,276.271088 
	C244.478149,270.953613 239.784882,268.153076 234.160706,269.048676 
	C226.902618,270.204468 223.661346,277.202271 226.790649,286.481232 
z"/>
<path fill="#86DB61" opacity="1.000000" stroke="none" 
	d="
M353.231689,293.969849 
	C344.724213,288.679504 342.256744,278.809296 347.309906,271.551727 
	C352.125885,264.634857 361.990662,263.071625 368.986450,268.116730 
	C374.788513,272.300964 376.620941,280.642487 373.209961,287.343140 
	C369.600677,294.433350 362.507568,296.878082 353.231689,293.969849 
M369.836029,285.036774 
	C371.529999,277.619446 369.733826,272.347595 364.709137,269.988953 
	C359.413727,267.503235 353.098083,269.392426 350.383148,274.274261 
	C347.357178,279.715424 349.151581,287.240082 354.167786,290.144775 
	C359.693237,293.344360 365.422577,291.698822 369.836029,285.036774 
z"/>
<path fill="#86DB62" opacity="1.000000" stroke="none" 
	d="
M418.049377,270.985840 
	C415.611786,275.239990 418.173004,276.821198 421.278137,277.795715 
	C424.124146,278.688873 427.133392,279.049988 430.008850,279.864136 
	C433.501862,280.853119 435.960571,282.930481 435.906616,286.912750 
	C435.854584,290.752441 433.620300,293.036987 430.189209,294.261658 
	C424.725830,296.211792 419.351807,295.675995 414.210144,293.203644 
	C413.353088,292.791504 412.992157,291.347717 412.401947,290.380646 
	C413.495422,290.146545 414.629150,289.600708 415.674988,289.735687 
	C419.094147,290.176971 422.513550,291.433594 425.868408,291.242828 
	C427.815308,291.132080 429.638672,288.848633 431.517639,287.542908 
	C429.890137,285.988312 428.502014,283.938751 426.573669,283.006256 
	C424.239044,281.877228 421.412781,281.812469 418.861938,281.071411 
	C415.203430,280.008514 412.575806,277.899323 412.741577,273.662872 
	C412.899109,269.636475 415.266144,266.678162 418.927979,266.208679 
	C423.226562,265.657501 427.711700,266.334625 432.082306,266.796844 
	C432.806244,266.873352 433.358398,268.574371 433.989929,269.524658 
	C432.905670,269.729462 431.698456,270.347778 430.758270,270.068146 
	C426.499817,268.801727 422.343811,267.894836 418.049377,270.985840 
z"/>
<path fill="#88DC64" opacity="1.000000" stroke="none" 
	d="
M200.085022,208.359421 
	C200.482788,201.416107 204.778030,205.826279 207.537750,204.810593 
	C207.537750,218.019608 207.537750,230.717285 207.537750,243.724289 
	C205.072556,243.724289 202.860336,243.724289 200.084656,243.724289 
	C200.084656,231.944702 200.084656,220.378326 200.085022,208.359421 
z"/>
<path fill="#84DA5E" opacity="1.000000" stroke="none" 
	d="
M203.795700,269.024780 
	C195.910751,269.708435 193.050003,272.723175 192.925812,280.150818 
	C192.864609,283.811646 193.074722,287.485565 192.823196,291.130157 
	C192.732803,292.439850 191.648743,293.680908 191.018188,294.953308 
	C190.297791,293.613342 188.994247,292.290344 188.954590,290.930542 
	C188.746048,283.779358 188.770050,276.616913 188.933273,269.463379 
	C188.964279,268.104279 189.985611,266.767792 190.550018,265.420868 
	C191.630600,266.355011 192.711197,267.289124 193.950363,268.360321 
	C196.068192,267.511810 198.718246,265.960083 201.562912,265.404297 
	C209.388275,263.875427 215.508209,268.769287 215.887650,276.717621 
	C216.125504,281.700195 216.071991,286.706299 215.885406,291.692017 
	C215.843872,292.801910 214.694794,293.870422 214.055649,294.957977 
	C213.349579,293.776215 212.106186,292.626099 212.034332,291.406952 
	C211.780075,287.093994 212.030426,282.754211 211.893921,278.430725 
	C211.735275,273.406250 209.701675,269.759857 203.795700,269.024780 
z"/>
<path fill="#86DB62" opacity="1.000000" stroke="none" 
	d="
M326.282654,291.399933 
	C327.831512,291.657379 329.007751,292.005249 330.183960,292.353088 
	C329.344177,293.189636 328.651123,294.427338 327.640564,294.796997 
	C321.525085,297.033844 316.105133,293.634399 315.687164,287.013000 
	C315.323669,281.255035 315.611481,275.455963 315.611481,270.518341 
	C313.308868,269.075714 311.811096,268.137329 310.313293,267.198944 
	C311.781281,266.206268 313.249268,265.213562 315.263733,263.851318 
	C315.364044,262.988770 315.551971,261.372620 315.735504,259.794098 
	C319.602203,259.059937 319.602203,259.059937 320.279114,265.336700 
	C322.409698,265.336700 324.664795,265.195129 326.882294,265.421631 
	C327.561859,265.491028 328.138367,266.569397 328.762085,267.185730 
	C328.133148,267.778992 327.551086,268.810547 326.866486,268.883759 
	C324.766876,269.108398 322.627930,268.965515 319.937012,268.965515 
	C319.937012,275.363708 319.812805,281.292969 319.982239,287.213837 
	C320.088867,290.939545 322.680511,291.795532 326.282654,291.399933 
z"/>
<path fill="#86DB61" opacity="1.000000" stroke="none" 
	d="
M257.557068,280.524200 
	C255.338745,275.492157 253.297653,270.795990 251.256561,266.099792 
	C251.676712,265.692078 252.096863,265.284363 252.517029,264.876617 
	C253.901016,266.117950 255.828171,267.097351 256.574921,268.645966 
	C259.801147,275.336487 262.681885,282.193573 266.186890,290.117096 
	C268.703857,284.615814 270.434174,280.020264 272.843964,275.813934 
	C274.920166,272.189911 274.318573,266.246338 281.540863,265.174652 
	C277.096252,275.193512 273.186859,284.314789 268.984100,293.298889 
	C267.653778,296.142609 264.527771,295.773285 263.026245,292.696564 
	C261.131836,288.814728 259.486847,284.811127 257.557068,280.524200 
z"/>
<path fill="#84DA5E" opacity="1.000000" stroke="none" 
	d="
M140.340057,294.759644 
	C139.947983,281.848083 139.947983,269.114471 139.947983,256.325958 
	C142.588638,255.313751 143.971237,255.867889 143.948257,259.055145 
	C143.869156,270.025665 143.868103,280.997437 143.956253,291.967804 
	C143.975800,294.401428 143.099014,295.347748 140.340057,294.759644 
z"/>
<path fill="#88DC64" opacity="1.000000" stroke="none" 
	d="
M335.106323,287.885315 
	C335.106537,281.241089 334.989014,275.077209 335.207001,268.925262 
	C335.250061,267.710144 336.584320,266.540741 337.323120,265.350250 
	C338.046326,266.425293 339.375122,267.488251 339.396881,268.577271 
	C339.569183,277.208649 339.492737,285.845001 339.492737,294.429535 
	C335.113739,294.869080 335.113739,294.869080 335.106323,287.885315 
z"/>
<path fill="#88DC64" opacity="1.000000" stroke="none" 
	d="
M335.887634,253.893326 
	C337.462219,254.328003 338.912262,254.741379 339.877808,255.662598 
	C340.201172,255.971146 339.545471,258.154602 338.879913,258.449799 
	C337.907959,258.880890 335.634308,258.674255 335.485138,258.221924 
	C335.076508,256.982544 335.487427,255.472977 335.887634,253.893326 
z"/>
<path fill="#E1E7F4" opacity="1.000000" stroke="none" 
	d="
M77.432266,209.594009 
	C74.982796,218.038528 72.319702,226.202988 69.312408,235.422714 
	C77.985397,234.679962 85.805321,234.010269 93.625237,233.340576 
	C93.989304,233.733398 94.353378,234.126221 94.717445,234.519043 
	C79.403435,253.608551 63.281582,272.016815 47.273300,290.520874 
	C46.669735,290.127563 46.066166,289.734253 45.462601,289.340973 
	C51.087410,277.486725 56.712215,265.632477 62.595417,253.233688 
	C53.877563,252.835190 46.020916,252.476074 37.082558,252.067505 
	C38.439068,249.974518 39.047031,248.665588 39.978817,247.655334 
	C51.146595,235.546982 62.341164,223.463028 73.605247,211.444382 
	C74.522804,210.465347 76.000969,210.011719 77.432266,209.594009 
z"/>
<path fill="#F9FAF8" opacity="1.000000" stroke="none" 
	d="
M265.760284,223.009384 
	C265.760132,218.886841 265.760132,215.260773 265.760132,211.190125 
	C273.750916,211.107208 281.813660,209.171402 287.093323,216.778015 
	C290.370941,221.500198 290.422363,227.083008 287.171326,231.852829 
	C281.974335,239.477661 273.915466,237.789032 265.760437,237.732178 
	C265.760437,232.725403 265.760437,228.115631 265.760284,223.009384 
z"/>
<path fill="#F9FAF8" opacity="1.000000" stroke="none" 
	d="
M341.851196,217.125458 
	C346.696594,211.160919 352.236420,209.367050 358.330627,211.511383 
	C363.611511,213.369522 366.904236,217.925323 367.143677,223.596100 
	C367.391602,229.468491 365.215851,234.115204 359.831726,236.642715 
	C354.445953,239.171005 349.020691,238.722580 344.425537,234.762833 
	C339.950531,230.906677 339.138641,225.757172 340.476562,220.197388 
	C340.705536,219.246048 341.260040,218.373032 341.851196,217.125458 
z"/>
<path fill="#F6F9F5" opacity="1.000000" stroke="none" 
	d="
M389.239990,211.009979 
	C392.529694,211.036972 395.398285,210.784714 398.168549,211.195526 
	C402.112793,211.780426 404.973785,213.796707 405.088440,218.323837 
	C405.204407,222.902634 403.007843,225.608017 398.501465,226.138412 
	C394.925842,226.559265 391.307983,226.621323 387.106140,226.879776 
	C387.106140,221.669876 387.054749,217.077789 387.179352,212.490463 
	C387.193024,211.988510 388.218719,211.514038 389.239990,211.009979 
z"/>
<path fill="#F4F8F2" opacity="1.000000" stroke="none" 
	d="
M302.053528,281.720276 
	C303.772278,285.723267 302.394562,289.078888 299.106659,290.274353 
	C295.975708,291.412781 292.153961,291.215942 288.758545,290.737061 
	C287.663116,290.582550 286.128754,287.575317 286.307404,286.050201 
	C286.481781,284.561340 288.424103,282.371674 289.876526,282.116058 
	C293.738892,281.436340 297.755463,281.633148 302.053528,281.720276 
z"/>
<path fill="#F7F9F6" opacity="1.000000" stroke="none" 
	d="
M226.591583,286.150604 
	C223.661346,277.202271 226.902618,270.204468 234.160706,269.048676 
	C239.784882,268.153076 244.478149,270.953613 246.264191,276.271088 
	C248.094406,281.720123 246.081680,287.736969 241.593491,290.233521 
	C236.341187,293.155121 230.917755,291.780365 226.591583,286.150604 
z"/>
<path fill="#F7F9F6" opacity="1.000000" stroke="none" 
	d="
M369.675659,285.386810 
	C365.422577,291.698822 359.693237,293.344360 354.167786,290.144775 
	C349.151581,287.240082 347.357178,279.715424 350.383148,274.274261 
	C353.098083,269.392426 359.413727,267.503235 364.709137,269.988953 
	C369.733826,272.347595 371.529999,277.619446 369.675659,285.386810 
z"/>
</svg>